<svg width="40" height="49" viewBox="0 0 40 49" fill="none" xmlns="http://www.w3.org/2000/svg">
<path fill-rule="evenodd" clip-rule="evenodd" d="M7.01891 14.074L7.96768 22.0022L6.04774 22.1445C3.37041 22.343 1.18422 24.2116 0.750212 26.6726C-0.250071 32.3447 -0.250071 38.13 0.750212 43.802C1.18422 46.263 3.37041 48.1317 6.04774 48.3301L10.1854 48.6368C16.7181 49.1211 23.2819 49.1211 29.8146 48.6368L33.9523 48.3301C36.6296 48.1317 38.8158 46.263 39.2498 43.802C40.2501 38.13 40.2501 32.3447 39.2498 26.6726C38.8158 24.2116 36.6296 22.343 33.9523 22.1445L32.032 22.0022L32.9808 14.074C33.0927 13.1393 33.0927 12.1961 32.9808 11.2615L32.9178 10.7353C32.25 5.15449 27.5247 0.738743 21.5185 0.0826587C20.5096 -0.0275529 19.4902 -0.0275529 18.4812 0.0826585C12.475 0.738743 7.74973 5.15448 7.08188 10.7353L7.01891 11.2615C6.90707 12.1961 6.90707 13.1393 7.01891 14.074ZM21.0338 3.90798C20.3469 3.83294 19.6528 3.83294 18.9659 3.90798C14.8767 4.35466 11.6596 7.36105 11.2049 11.1607L11.1419 11.6868C11.0639 12.3387 11.0639 12.9967 11.1419 13.6486L12.1065 21.7094C17.3633 21.3964 22.6364 21.3964 27.8932 21.7094L28.8578 13.6486C28.9358 12.9967 28.9358 12.3387 28.8578 11.6868L28.7949 11.1607C28.3402 7.36105 25.1231 4.35466 21.0338 3.90798ZM19.9999 31.3856C17.7089 31.3856 15.8516 33.1101 15.8516 35.2373C15.8516 37.3646 17.7089 39.089 19.9999 39.089C22.291 39.089 24.1483 37.3646 24.1483 35.2373C24.1483 33.1101 22.291 31.3856 19.9999 31.3856Z" fill="#EF6767"/>
</svg>
