<svg width="308" height="148" fill="none" xmlns="http://www.w3.org/2000/svg"><g clip-path="url(#a)"><path d="M32.7 72.71c1.88-6.52 4.6-12.8 7.8-18.82 1.59-3.02 3.36-5.95 5.25-8.82 1.88-2.87 3.91-5.65 6.06-8.34 4.3-5.39 9.22-10.31 14.53-14.8a98.24 98.24 0 0 1 17.43-11.57c6.24-3.17 12.79-5.78 19.71-7.49 6.88-1.73 13.91-2.6 20.92-2.82 7.02-.21 14.02.27 20.94 1.26 6.92.98 13.75 2.58 20.44 4.72 6.68 2.13 13.23 4.97 19.4 8.56 6.18 3.48 11.93 8.3 16.78 13.05 2.43 2.36 4.64 4.5 7.01 6.17 2.36 1.68 4.93 2.97 7.8 3.95 2.86.98 5.9 1.76 8.99 2.23 3.09.49 6.31.76 9.63.97 6.65.38 13.53.83 20.29 1.65 6.79.84 13.45 1.93 20.18 3.22 3.36.7 6.81 1.65 10.04 2.88 1.61.6 3.24 1.21 4.9 2.07.85.4 1.67 1.05 2.46 1.63.7.68 1.43 1.36 1.95 2.15.61.75 1.02 1.58 1.48 2.38.37.84.77 1.66 1.03 2.51.6 1.69.98 3.41 1.24 5.12.5 3.44.55 6.87.29 10.25-.02.2-.19.35-.39.34a.374.374 0 0 1-.34-.34c-.3-3.34-.76-6.65-1.7-9.79-.44-1.57-.98-3.11-1.69-4.52-.32-.73-.75-1.37-1.14-2.04-.46-.6-.87-1.25-1.41-1.75-.48-.57-1.07-.96-1.61-1.4-.62-.34-1.14-.72-1.85-.97-1.4-.55-2.98-.99-4.57-1.41-3.17-.86-6.31-1.38-9.58-1.75-6.57-.74-13.27-1.3-19.89-1.6-3.32-.16-6.63-.27-9.95-.33l-10.06-.1c-3.4-.05-6.91-.13-10.49-.55-3.58-.4-7.13-1.15-10.67-2.21-3.54-1.03-7.11-2.7-10.29-4.83-3.2-2.13-5.89-4.63-8.35-6.89-2.45-2.29-4.79-4.37-7.29-6.26-1.22-.98-2.54-1.82-3.82-2.73l-2-1.25-1-.63-1.04-.58c-5.47-3.16-11.37-5.61-17.48-7.63-24.46-7.73-51.97-9.07-75.4 1.91-5.89 2.64-11.47 5.96-16.79 9.71-5.28 3.81-10.21 8.14-14.74 12.91-9.09 9.51-16.68 20.64-22.34 32.8-.09.19-.3.27-.49.18a.36.36 0 0 1-.2-.43l.02.03Z" fill="#E52521"/><path d="M38.53 110.64c-1.66-1-3.71-1.5-6.15-1.5-3.31 0-6.12 1.21-8.41 3.64s-3.81 5.74-4.55 9.92l-4.16 23.6H0l8.71-49.42h15.25l-1.62 9.17h.19c3.59-6.69 8.53-10.04 14.8-10.04 1.61 0 2.83.19 3.66.58l-2.48 14.04.02.01ZM59.52 146.31H44.27l8.71-49.42h15.25l-8.71 49.42ZM125.66 146.31h-15.25l1.2-6.8h-.19c-4.42 5.34-9.99 8.01-16.71 8.01-6.18 0-10.76-2.18-13.76-6.54-3-4.36-3.8-10.45-2.43-18.27 1.37-7.82 4.67-14.72 9.69-19.64s10.89-7.38 17.61-7.38c6.37 0 10.41 2.28 12.11 6.85h.19l5.18-29.39h15.25l-12.9 73.16h.01Zm-10.72-24.03.66-3.72c.57-3.22.1-5.89-1.39-8.01s-3.73-3.19-6.73-3.19c-3.38 0-6.25 1.33-8.62 3.98-2.37 2.65-3.96 6.3-4.77 10.93-.77 4.34-.44 7.69.98 10.04 1.42 2.35 3.75 3.52 7 3.52s5.82-1.24 8.21-3.72c2.38-2.48 3.93-5.76 4.66-9.84v.01ZM191.43 125.94h-32.24c-.75 7.17 3.14 10.76 11.66 10.76 5.44 0 10.44-1.29 15.01-3.86l-1.94 11c-5 2.44-11.15 3.67-18.45 3.67-7.98 0-13.78-2.21-17.41-6.64-3.63-4.42-4.74-10.59-3.35-18.51 1.39-7.92 4.97-14.7 10.58-19.5 5.61-4.79 11.88-7.19 18.83-7.19 6.95 0 12.4 2.14 15.59 6.42 3.19 4.28 4.13 10.09 2.84 17.42l-1.13 6.42.01.01Zm-12.49-9.36c1.25-7.08-.99-10.62-6.72-10.62-2.45 0-4.74 1.01-6.88 3.04-2.14 2.03-3.67 4.55-4.59 7.58h18.19ZM251.05 146.31H235.8l8.71-49.42h15.25l-8.71 49.42ZM298.81 145.73c-2.46 1.19-5.96 1.79-10.5 1.79-10.75 0-15.13-5.58-13.17-16.75l3.99-22.63h-8.01l1.98-11.24h8.01l1.88-10.67 15.97-4.34-2.65 15.01h11.1l-1.98 11.24h-11.1l-3.52 19.98c-.91 5.15.68 7.72 4.77 7.72 1.61 0 3.35-.47 5.22-1.4l-1.99 11.29ZM72 83.01c5.182-4.745 6.156-12.114 2.176-16.46-3.98-4.346-11.406-4.023-16.587.72-5.181 4.745-6.155 12.114-2.175 16.46 3.98 4.346 11.406 4.024 16.587-.72ZM263.536 81.013c5.181-4.744 6.155-12.114 2.176-16.46-3.98-4.346-11.406-4.023-16.587.721-5.181 4.745-6.155 12.114-2.176 16.46 3.98 4.346 11.406 4.023 16.587-.721Z" fill="#1D1D1B"/></g><defs><clipPath id="a"><path fill="#fff" d="M0 0h307.42v147.51H0z"/></clipPath></defs></svg>