<svg width="62" height="62" fill="none" xmlns="http://www.w3.org/2000/svg"><path d="M54.818 31a7.75 7.75 0 0 0 2.015-5.167 7.75 7.75 0 0 0-7.75-7.75H35.702A7.75 7.75 0 0 0 28.417 7.75h-15.5a7.75 7.75 0 0 0-7.75 7.75 7.75 7.75 0 0 0 2.015 5.167 7.75 7.75 0 0 0 0 10.333 7.75 7.75 0 0 0 0 10.333A7.75 7.75 0 0 0 5.167 46.5a7.75 7.75 0 0 0 7.75 7.75h36.166a7.75 7.75 0 0 0 5.735-12.917 7.75 7.75 0 0 0 0-10.333ZM28.417 49.083h-15.5a2.583 2.583 0 1 1 0-5.166h15.5a2.583 2.583 0 1 1 0 5.166Zm0-10.333h-15.5a2.584 2.584 0 0 1 0-5.167h15.5a2.583 2.583 0 0 1 0 5.167Zm0-10.333h-15.5a2.583 2.583 0 0 1 0-5.167h15.5a2.584 2.584 0 0 1 0 5.167Zm0-10.334h-15.5a2.583 2.583 0 1 1 0-5.166h15.5a2.583 2.583 0 1 1 0 5.166Zm22.449 30.251a2.405 2.405 0 0 1-1.783.75H35.702c.62-1.667.62-3.5 0-5.167h13.381a2.583 2.583 0 0 1 2.584 2.583 2.584 2.584 0 0 1-.801 1.834Zm0-10.333a2.404 2.404 0 0 1-1.783.749H35.702c.62-1.666.62-3.5 0-5.167h13.381a2.583 2.583 0 0 1 2.584 2.584A2.584 2.584 0 0 1 50.866 38Zm0-10.333a2.404 2.404 0 0 1-1.783.749H35.702c.62-1.667.62-3.5 0-5.167h13.381a2.583 2.583 0 0 1 2.584 2.583 2.584 2.584 0 0 1-.801 1.835Z" fill="#34CC27" fill-opacity=".75"/></svg>